<?xml version="1.0" encoding="utf-8"?>
<!-- Generator: Adobe Illustrator 17.0.0, SVG Export Plug-In . SVG Version: 6.00 Build 0)  -->
<!DOCTYPE svg PUBLIC "-//W3C//DTD SVG 1.1//EN" "http://www.w3.org/Graphics/SVG/1.1/DTD/svg11.dtd">
<svg version="1.1" id="Layer_1" xmlns="http://www.w3.org/2000/svg" xmlns:xlink="http://www.w3.org/1999/xlink" x="0px" y="0px"
	 width="365.5px" height="168.5px" viewBox="0 0 365.5 168.5" enable-background="new 0 0 365.5 168.5" xml:space="preserve">
<polygon fill="#693676" points="182.714,0 364.392,23.457 364.392,145.008 182.714,166.332 1.033,145.008 1.033,23.457 "/>
<polygon fill="#FFFFFF" points="359.468,31.418 358.468,31.418 358.468,28.859 355.93,28.543 356.053,27.551 359.468,27.977 "/>
<path fill="#FFFFFF" d="M359.468,133.734h-1v-5.685h1V133.734z M359.468,122.365h-1v-5.684h1V122.365z M359.468,110.997h-1v-5.684h1
	V110.997z M359.468,99.629h-1v-5.685h1V99.629z M359.468,88.261h-1v-5.684h1V88.261z M359.468,76.892h-1v-5.684h1V76.892z
	 M359.468,65.523h-1V59.84h1V65.523z M359.468,54.155h-1v-5.685h1V54.155z M359.468,42.787h-1v-5.685h1V42.787z"/>
<polygon fill="#FFFFFF" points="356.043,143.253 355.93,142.259 358.468,141.972 358.468,139.418 359.468,139.418 359.468,142.864 
	"/>
<path fill="#FFFFFF" d="M182.302,161.669l-3.002-0.339l0.113-0.994l2.889,0.327l2.886-0.327l0.113,0.994L182.302,161.669z
	 M191.188,160.663l-0.113-0.994l5.888-0.666l0.113,0.994L191.188,160.663z M173.412,160.663l-5.887-0.666l0.112-0.994l5.888,0.666
	L173.412,160.663z M202.964,159.33l-0.113-0.994l5.888-0.666l0.113,0.994L202.964,159.33z M161.638,159.33l-5.888-0.666l0.112-0.994
	l5.888,0.666L161.638,159.33z M214.739,157.997l-0.113-0.994l5.888-0.666l0.113,0.994L214.739,157.997z M149.862,157.997
	l-5.888-0.666l0.112-0.994l5.888,0.666L149.862,157.997z M226.515,156.664l-0.113-0.994l5.888-0.666l0.113,0.994L226.515,156.664z
	 M138.087,156.664l-5.888-0.666l0.112-0.994l5.888,0.666L138.087,156.664z M238.29,155.331l-0.113-0.994l5.888-0.666l0.113,0.994
	L238.29,155.331z M126.311,155.331l-5.888-0.666l0.112-0.994l5.888,0.666L126.311,155.331z M250.065,153.998l-0.113-0.994
	l5.888-0.667l0.113,0.994L250.065,153.998z M114.536,153.998l-5.888-0.667l0.112-0.994l5.888,0.667L114.536,153.998z
	 M261.841,152.665l-0.113-0.994l5.888-0.667l0.113,0.994L261.841,152.665z M102.761,152.665l-5.888-0.667l0.112-0.994l5.888,0.667
	L102.761,152.665z M273.616,151.332l-0.113-0.994l5.888-0.667l0.113,0.994L273.616,151.332z M90.985,151.332l-5.888-0.667
	l0.112-0.994l5.888,0.667L90.985,151.332z M285.392,149.999l-0.113-0.994l5.888-0.667l0.113,0.994L285.392,149.999z M79.21,149.999
	l-5.888-0.667l0.112-0.994l5.888,0.667L79.21,149.999z M297.167,148.666l-0.113-0.994l5.888-0.667l0.113,0.994L297.167,148.666z
	 M67.435,148.666l-5.888-0.667l0.112-0.994l5.888,0.667L67.435,148.666z M308.942,147.333l-0.113-0.994l5.888-0.667l0.113,0.994
	L308.942,147.333z M55.659,147.333l-5.888-0.667l0.112-0.994l5.888,0.667L55.659,147.333z M320.718,146l-0.113-0.994l5.888-0.667
	l0.113,0.994L320.718,146z M43.884,146l-5.887-0.667l0.112-0.994l5.887,0.667L43.884,146z M332.493,144.667l-0.113-0.994
	l5.888-0.667l0.113,0.994L332.493,144.667z M32.109,144.667L26.221,144l0.112-0.994l5.888,0.667L32.109,144.667z M344.269,143.334
	l-0.113-0.994l5.888-0.667l0.113,0.994L344.269,143.334z M20.333,143.334l-5.888-0.667l0.112-0.994l5.888,0.667L20.333,143.334z"/>
<polygon fill="#FFFFFF" points="8.558,143.253 5.133,142.864 5.133,139.418 6.133,139.418 6.133,141.972 8.67,142.259 "/>
<path fill="#FFFFFF" d="M6.133,133.733h-1v-5.685h1V133.733z M6.133,122.365h-1v-5.684h1V122.365z M6.133,110.996h-1v-5.684h1
	V110.996z M6.133,99.628h-1v-5.684h1V99.628z M6.133,88.26h-1v-5.685h1V88.26z M6.133,76.892h-1v-5.685h1V76.892z M6.133,65.522h-1
	v-5.684h1V65.522z M6.133,54.154h-1v-5.684h1V54.154z M6.133,42.786h-1v-5.684h1V42.786z"/>
<polygon fill="#FFFFFF" points="6.133,31.418 5.133,31.418 5.133,27.977 8.548,27.551 8.672,28.543 6.133,28.859 "/>
<path fill="#FFFFFF" d="M350.041,26.559l-5.888-0.733l0.123-0.992l5.888,0.733L350.041,26.559z M14.56,26.559l-0.124-0.992
	l5.888-0.733l0.124,0.992L14.56,26.559z M338.266,25.092l-5.888-0.733l0.123-0.992l5.888,0.733L338.266,25.092z M26.334,25.092
	L26.211,24.1l5.888-0.733l0.123,0.992L26.334,25.092z M38.111,23.626l-0.124-0.992l5.888-0.733l0.124,0.992L38.111,23.626z
	 M326.49,23.625l-5.888-0.733l0.123-0.992l5.888,0.733L326.49,23.625z M314.715,22.159l-5.888-0.733l0.123-0.992l5.888,0.733
	L314.715,22.159z M49.886,22.159l-0.124-0.992l5.888-0.733l0.124,0.992L49.886,22.159z M61.662,20.693l-0.124-0.992l5.888-0.733
	l0.124,0.992L61.662,20.693z M302.938,20.692l-5.888-0.733l0.123-0.992l5.888,0.733L302.938,20.692z M291.163,19.226l-5.888-0.733
	l0.123-0.992l5.888,0.733L291.163,19.226z M73.437,19.226l-0.124-0.992l5.888-0.733l0.124,0.992L73.437,19.226z M279.388,17.76
	l-5.888-0.733l0.123-0.992l5.888,0.733L279.388,17.76z M85.213,17.76l-0.123-0.992l5.888-0.732l0.123,0.992L85.213,17.76z
	 M96.989,16.294l-0.124-0.992l5.888-0.733l0.124,0.992L96.989,16.294z M267.612,16.293l-5.888-0.732l0.123-0.992l5.888,0.732
	L267.612,16.293z M255.836,14.827l-5.888-0.733l0.123-0.992l5.888,0.733L255.836,14.827z M108.765,14.827l-0.124-0.992l5.888-0.733
	l0.124,0.992L108.765,14.827z M120.54,13.361l-0.124-0.992l5.888-0.733l0.124,0.992L120.54,13.361z M244.06,13.36l-5.888-0.733
	l0.123-0.992l5.888,0.733L244.06,13.36z M232.285,11.894l-5.888-0.733l0.123-0.992l5.888,0.733L232.285,11.894z M132.316,11.894
	l-0.124-0.992l5.888-0.733l0.124,0.992L132.316,11.894z M220.51,10.428l-5.888-0.733l0.123-0.992l5.888,0.733L220.51,10.428z
	 M144.091,10.428l-0.123-0.992l5.888-0.732l0.123,0.992L144.091,10.428z M155.867,8.962l-0.124-0.992l5.888-0.733l0.124,0.992
	L155.867,8.962z M208.734,8.961l-5.889-0.732l0.123-0.992l5.889,0.732L208.734,8.961z M196.958,7.495l-5.888-0.733l0.123-0.992
	l5.888,0.733L196.958,7.495z M167.643,7.495l-0.124-0.992l5.889-0.733l0.123,0.992L167.643,7.495z M179.418,6.029l-0.123-0.992
	l3.007-0.375l3.004,0.374l-0.123,0.992l-2.881-0.358L179.418,6.029z"/>
<g>
	<path fill="#FFFFFF" d="M100.3,61.104c-0.111,0-0.193,0-0.247,0c-1.813,0.11-3.736,2.143-5.768,6.098
		c-1.374,2.802-2.28,4.752-2.719,5.851c-0.33,0.494-0.55,0.797-0.659,0.906c-0.056,0-0.083-0.165-0.083-0.494
		c0-0.604,0.041-1.511,0.124-2.72c0.082-1.208,0.123-2.114,0.123-2.719v-0.495c0-3.185-0.412-4.779-1.236-4.779
		c-0.935,0-1.566,0.193-1.896,0.577c-0.33,0.385-0.714,1.153-1.153,2.308c-0.22,0.604-0.33,1.373-0.33,2.307
		c0,0.44,0.041,1.086,0.124,1.937c0.083,0.853,0.124,1.497,0.124,1.937l0.247,2.472c-0.018,0.272-0.033,0.505-0.048,0.745
		c-0.012,0-0.021-0.003-0.034-0.003c-0.329,0-0.577,0.082-0.742,0.247c-2.088,2.143-4.148,3.846-6.18,5.109
		c-0.989,0.604-1.648,0.906-1.978,0.906c-0.714,0-1.071-0.659-1.071-1.978c0-2.691-0.055-5.356-0.164-7.993
		c0.439,0.11,0.713,0.165,0.824,0.165c0.769,0,1.154-0.467,1.154-1.401v-0.494c-0.164-1.153-0.577-1.923-1.236-2.308
		c-0.056-0.109-0.303-0.191-0.742-0.247c-0.055-6.537-0.495-13.541-1.318-21.013c-0.056-1.098-0.111-2.196-0.165-3.296
		c-0.165-1.483-0.632-2.225-1.401-2.225c0.165,0-0.358,0.165-1.565,0.494c-0.44,0.111-1.1,0.605-1.978,1.483
		c-2.802,5.933-4.917,10.383-6.345,13.349c-2.033,4.011-3.654,6.95-4.862,8.817c-1.044,1.594-1.841,2.912-2.39,3.955
		c-2.912,0.385-4.917,0.633-6.015,0.742c-2.253,0.385-3.79,0.659-4.614,0.823c-1.154,0.605-1.937,1.142-2.349,1.607
		c-0.412,0.467-0.618,1.25-0.618,2.349c0,0.494,0.138,0.741,0.412,0.741c0.055,0,0.083-0.027,0.083-0.082c0.055,0,0.111,0,0.165,0
		c1.374-0.495,3.461-1.017,6.263-1.566c1.867-0.384,3.268-0.604,4.203-0.66c-0.22,0.33-0.495,0.66-0.824,0.989
		c-0.77,0.88-1.813,2.527-3.131,4.944c-1.483,2.637-2.225,4.396-2.225,5.273v0.165c0.44,0.659,1.075,0.988,1.901,0.988
		c0.605,0,1.019-0.192,1.24-0.576c1.322-2.143,1.984-3.296,1.984-3.461c2.535-3.955,4.575-7.031,6.118-9.229
		c5.456-0.934,9.151-1.4,11.079-1.4c0.551,0,1.268,0.056,2.15,0.165v2.554c0,1.595-0.037,2.692-0.109,3.297
		c-0.147,1.209-0.22,3.049-0.22,5.521c0,0.879,0.288,1.812,0.865,2.802c0.577,0.988,1.277,1.483,2.101,1.483
		c1.978,0,4.45-1.003,7.416-3.008c1.721-1.163,3.042-2.265,3.986-3.309c-0.131,0.926-0.197,1.632-0.197,2.113
		c0,2.089,0.494,3.132,1.483,3.132c0.548,0,1.167-0.193,1.854-0.577c0.686-0.384,1.084-0.796,1.195-1.236
		c1.483-4.779,3.515-9.641,6.098-14.585c0.33-0.604,0.989-1.483,1.978-2.637c0.769,0.989,1.566,1.483,2.39,1.483
		c0.495,0,1.057-0.302,1.689-0.906c0.631-0.604,0.947-1.154,0.947-1.648C103.678,62.368,102.442,61.104,100.3,61.104z
		 M72.531,66.625c-3.736,0.33-6.318,0.577-7.746,0.742c-1.209,0.11-2.198,0.247-2.966,0.411l0.659-1.07
		c3.68-5.934,6.674-11.509,8.982-16.729c0.713,5.329,1.071,10.108,1.071,14.339V66.625z"/>
	<path fill="#FFFFFF" d="M122.136,71.651c-0.385,0-1.017,0.659-1.896,1.978c-1.153,1.704-2.198,2.995-3.131,3.873
		c-1.539,1.43-3.213,2.308-5.026,2.637c-0.385,0.056-0.605-0.054-0.659-0.329c-0.605-2.582-0.853-4.586-0.742-6.016
		c0.33-5.218,0.879-8.487,1.648-9.806c0.878,0.385,1.896,0.605,3.049,0.659c3.131,0.165,4.861-0.401,5.191-1.699
		c0.109-0.396,0.054-0.68-0.164-0.85c-0.605-0.168-1.017-0.225-1.236-0.17h-1.565c-1.868-0.11-3.16-0.439-3.873-0.989
		c0.439-1.758,0.851-3.323,1.236-4.697c0.548-1.978,0.851-3.543,0.906-4.696c0.109-1.867-0.193-3.516-0.906-4.944
		c-0.165-0.274-0.44-0.439-0.824-0.494c-1.1,0.11-2.225,1.538-3.378,4.284c-0.77,1.813-1.236,3.407-1.401,4.779
		c-0.33,2.583-0.522,4.011-0.577,4.285c-3.077-0.659-5.109-1.043-6.098-1.153c-0.274,0-0.412,0.193-0.412,0.576
		c-0.054,0.33,0.138,0.66,0.577,0.989c2.252,1.649,3.982,2.802,5.191,3.461l-0.742,3.955c-0.659,3.517-0.989,6.895-0.989,10.136
		c0,3.846,0.686,6.044,2.06,6.592c0.439,0.165,1.016,0.274,1.731,0.33c2.087,0.109,4.806-0.989,8.158-3.296
		c1.154-0.77,2.307-1.84,3.461-3.214c1.428-1.702,2.06-3.021,1.895-3.955C123.343,72.448,122.849,71.707,122.136,71.651z"/>
	<path fill="#FFFFFF" d="M209.067,73.3c-0.385,0-0.935,0.577-1.649,1.73c-2.142,3.131-3.461,4.917-3.955,5.357
		c-0.659,0.823-1.209,0.797-1.648-0.083c-0.989-1.978-1.483-4.202-1.483-6.675c0-0.933,0.274-3.461,0.823-7.58
		c0.604-3.406,1.071-5.74,1.401-7.005c0.384-1.757,0.713-3.158,0.988-4.202c1.043-4.01,1.73-6.812,2.06-8.405
		c0.604-1.978,1.016-3.158,1.236-3.543c0-0.878-0.275-1.702-0.824-2.473c-0.385-0.548-0.742-0.823-1.071-0.823
		c-0.88,0-1.512,0.467-1.896,1.4c-1.1,2.637-2.171,6.456-3.214,11.454c-1.044,4.999-1.841,8.681-2.39,11.042
		c-0.55-1.043-0.961-1.702-1.235-1.977c-0.77-0.714-1.539-1.071-2.308-1.071c-2.362,0-4.449,1.73-6.263,5.191
		c-0.951,1.836-1.682,3.422-2.202,4.768c-0.034,0.031-0.068,0.058-0.104,0.093c-1.539,2.143-3.036,3.942-4.491,5.397
		c-1.456,1.456-2.953,2.184-4.49,2.184c-1.43,0-2.143-1.071-2.143-3.214c0-0.438,0.054-1.099,0.164-1.978
		c0.11-0.878,0.165-1.565,0.165-2.06c0-3.076-1.017-4.669-3.049-4.779h-0.247c-1.703,0-3.626,1.318-5.768,3.955
		c-1.759,2.197-2.939,3.736-3.543,4.614c-0.33,0.329-0.632,0.494-0.906,0.494c-0.495,0-0.742-0.274-0.742-0.824
		c0-0.769,0.124-1.978,0.371-3.625c0.247-1.648,0.371-2.911,0.371-3.791v-0.329c-0.164-0.989-0.77-1.483-1.813-1.483
		c-1.538,0-2.472,0.879-2.801,2.637c-0.276,1.43-0.412,2.555-0.412,3.379v2.458c-0.938,1.33-1.524,2.144-1.73,2.403
		c-2.033,2.637-3.378,3.955-4.038,3.955c-0.275,0-0.577-0.219-0.906-0.659c-1.044-1.372-1.566-2.938-1.566-4.696v-0.412
		c0.054-1.538,0.33-3.268,0.824-5.191l0.577-2.225c0.384-1.538,0.577-2.5,0.577-2.885c0-0.438-0.138-0.769-0.412-0.988
		c-0.989-0.714-1.594-1.071-1.813-1.071c-0.494,0-0.824,0.441-0.989,1.318c-0.111,0.659-0.303,0.988-0.577,0.988l-1.154-0.988
		c-1.264-1.099-2.39-1.649-3.378-1.649c-0.879,0-1.594,0.247-2.143,0.742c-2.362,2.143-4.175,5.082-5.439,8.816
		c-0.989,2.857-1.483,5.659-1.483,8.405c0,3.846,1.236,5.769,3.708,5.769c2.196,0,4.971-2.5,8.322-7.499
		c0.934,1.759,1.675,3.021,2.225,3.79c1.153,1.595,2.307,2.39,3.461,2.39c0.439,0,0.851-0.082,1.236-0.247
		c0.878-0.329,2.005-1.277,3.378-2.843c0.496-0.565,0.9-1.041,1.26-1.475c0.06,1.571,0.16,2.699,0.306,3.329
		c0.109,0.494,0.384,1.1,0.824,1.812c0.109,0.109,0.356,0.219,0.741,0.33h0.083c1.043,0,2.143-0.742,3.296-2.226
		c0.933-1.537,1.648-2.772,2.142-3.708c1.483-2.855,2.856-5.026,4.12-6.51c0.878-1.043,1.593-1.565,2.143-1.565h0.165
		c0.989,0.165,1.483,1.209,1.483,3.132c-0.111,0.935-0.165,1.703-0.165,2.307v0.824c0,1.539,0.247,2.912,0.741,4.12
		c0.713,1.594,1.731,2.418,3.049,2.472h0.165c1.263,0,3.185-0.823,5.768-2.472c1.221-0.993,2.255-1.867,3.109-2.627
		c-0.004,0.317,0.001,0.621,0.02,0.896c0.274,3.131,1.346,4.697,3.214,4.697c0.549,0,1.263-0.302,2.143-0.907
		c2.307-1.537,4.779-4.202,7.416-7.992c0.165,3.296,0.631,5.686,1.4,7.169c1.483,2.802,3.076,3.844,4.779,3.131
		c1.593-0.659,2.857-1.675,3.791-3.049c1.372-1.978,2.252-3.186,2.637-3.626c0.713-1.263,1.071-2.278,1.071-3.049
		C210.386,74.124,209.945,73.3,209.067,73.3z M143.889,71.322c-1.154,3.406-3.325,6.62-6.51,9.641
		c-0.275,0.275-0.605,0.412-0.989,0.412c-0.495,0-0.742-0.631-0.742-1.896c0-4.449,1.455-8.623,4.367-12.524
		c1.043-1.373,1.949-2.061,2.719-2.061c0.824,0,1.236,0.906,1.236,2.72c0,0.714-0.111,1.621-0.33,2.719
		C143.642,70.444,143.724,70.773,143.889,71.322z M197.201,66.584c-0.164,0.853-0.247,1.333-0.247,1.442
		c-0.77,2.088-1.318,3.461-1.647,4.12c-0.659,1.429-1.512,2.829-2.555,4.202c-1.044,1.374-2.006,2.445-2.884,3.214
		c-0.55,0.44-0.989,0.659-1.319,0.659c-0.439,0-0.688-0.247-0.741-0.742c-0.22-1.428-0.069-3.24,0.453-5.438
		c0.521-2.196,1.826-4.971,3.914-8.322c0.659-1.043,1.455-1.565,2.39-1.565c0.384,0,0.796,0.138,1.236,0.412
		c0.659,0.44,1.043,0.714,1.153,0.823c0.165,0,0.302-0.054,0.412-0.164C197.42,65.279,197.366,65.732,197.201,66.584z"/>
	<path fill="#FFFFFF" d="M268.478,64.895c-0.329-2.526-1.565-3.79-3.708-3.79c-0.11,0-0.193,0-0.247,0
		c-1.812,0.11-3.736,2.143-5.768,6.098c-1.373,2.802-2.28,4.752-2.719,5.851c-0.33,0.494-0.55,0.797-0.659,0.906
		c-0.056,0-0.083-0.165-0.083-0.494c0-0.604,0.042-1.511,0.124-2.72c0.082-1.208,0.124-2.114,0.124-2.719v-0.495
		c0-3.185-0.412-4.779-1.236-4.779c-0.935,0-1.566,0.193-1.896,0.577c-0.329,0.385-0.715,1.153-1.153,2.308
		c-0.221,0.604-0.33,1.373-0.33,2.307c0,0.345,0.026,0.819,0.077,1.416c-0.489,0.603-1.101,1.401-1.848,2.416
		c-1.841,2.5-4.148,4.944-6.922,7.334c-2.774,2.39-5.7,3.584-8.775,3.584c-3.407,0-5.962-1.84-7.664-5.521
		c-1.264-2.746-1.895-6.016-1.895-9.806c0-7.361,1.263-13.679,3.79-18.953c1.208-2.472,2.691-4.229,4.45-5.273
		c0.273-0.165,0.548-0.247,0.823-0.247c0.768,0,1.538,0.357,2.308,1.071c0.769,0.715,1.208,1.429,1.318,2.143
		c0.165,2.143,0.247,3.681,0.247,4.614c0.384,3.846,1.071,6.703,2.061,8.569c0.219,0.44,0.548,0.659,0.988,0.659
		c0.33,0,0.631-0.109,0.906-0.329c1.099-0.659,1.648-1.483,1.648-2.472c0-0.549-0.138-1.181-0.412-1.896
		c-1.209-3.241-1.812-7.141-1.812-11.701c0-1.978-0.303-3.076-0.906-3.296c-0.056-0.055-0.165-0.083-0.33-0.083
		c-0.33,0-0.646,0.234-0.947,0.701c-0.303,0.467-0.509,0.7-0.618,0.7h-0.083c-0.385-0.219-0.604-0.356-0.659-0.412
		c-1.264-1.263-2.884-1.895-4.861-1.895c-1.868,0-3.79,1.43-5.768,4.285c-1.429,2.033-2.609,4.285-3.543,6.757
		c-1.759,4.726-2.637,10.712-2.637,17.964c0,4.834,1.112,9.022,3.337,12.566c2.226,3.543,5.672,5.314,10.342,5.314
		c4.669,0,10.053-3.021,16.15-9.064c0.693-0.692,1.244-1.251,1.658-1.679c-0.062,1.022-0.093,1.72-0.093,2.091
		c0,0.495-0.069,1.224-0.206,2.184c-0.138,0.962-0.206,1.689-0.206,2.184c0,2.089,0.494,3.132,1.483,3.132
		c0.548,0,1.166-0.193,1.854-0.577c0.687-0.384,1.084-0.796,1.195-1.236c1.483-4.779,3.515-9.641,6.098-14.585
		c0.329-0.604,0.988-1.483,1.978-2.637c0.769,0.989,1.565,1.483,2.39,1.483c0.494,0,1.057-0.302,1.689-0.906
		C268.162,65.938,268.478,65.389,268.478,64.895z"/>
	<path fill="#FFFFFF" d="M322.286,73.877c-0.275-1.429-0.771-2.17-1.483-2.226c-0.385,0-1.018,0.659-1.896,1.978
		c-1.153,1.704-2.197,2.995-3.131,3.873c-1.539,1.43-3.214,2.308-5.026,2.637c-0.386,0.056-0.605-0.054-0.659-0.329
		c-0.605-2.582-0.853-4.586-0.742-6.016c0.33-5.218,0.878-8.487,1.648-9.806c0.878,0.385,1.895,0.605,3.049,0.659
		c3.131,0.165,4.861-0.401,5.191-1.699c0.109-0.396,0.054-0.68-0.165-0.85c-0.605-0.168-1.018-0.225-1.236-0.17h-1.565
		c-1.868-0.11-3.159-0.439-3.873-0.989c0.439-1.758,0.852-3.323,1.236-4.697c0.549-1.978,0.851-3.543,0.906-4.696
		c0.109-1.867-0.193-3.516-0.906-4.944c-0.165-0.274-0.44-0.439-0.824-0.494c-1.1,0.11-2.225,1.538-3.378,4.284
		c-0.77,1.813-1.236,3.407-1.401,4.779c-0.329,2.583-0.523,4.011-0.577,4.285c-3.077-0.659-5.108-1.043-6.098-1.153
		c-0.274,0-0.412,0.193-0.412,0.576c-0.054,0.33,0.138,0.66,0.577,0.989c2.252,1.649,3.982,2.802,5.191,3.461l-0.741,3.955
		c-0.027,0.144-0.045,0.283-0.07,0.426c-1.246,0.657-1.967,1.012-2.155,1.058c-0.385,0.11-0.853,0.165-1.4,0.165
		c-0.056,0-0.577-0.055-1.566-0.165c-1.812-0.219-3.543-0.769-5.19-1.648c0-0.494,0.109-1.51,0.329-3.049
		c0.165-1.153,0.466-2.416,0.906-3.79c0.714-2.308,1.428-5.054,2.143-8.24c0.769-3.515,1.153-6.125,1.153-7.828v-1.236
		c0-2.581-0.659-3.873-1.977-3.873c-1.264,0-2.362,1.318-3.296,3.956c-0.659,1.868-1.153,3.818-1.483,5.851
		c-0.935,5.933-1.621,11.399-2.06,16.398c-0.55-0.384-1.1-0.577-1.648-0.577c-0.824,0-1.236,0.55-1.236,1.648
		c0,0.605,0.398,1.456,1.195,2.555c0.796,1.1,1.194,2.088,1.194,2.966c0,0.111,0,0.193,0,0.248
		c-0.055,0.582-0.108,1.154-0.163,1.735c-0.789,1.117-1.298,1.82-1.484,2.055c-2.033,2.637-3.378,3.955-4.037,3.955
		c-0.276,0-0.577-0.219-0.907-0.659c-1.044-1.372-1.565-2.938-1.565-4.696v-0.412c0.055-1.538,0.33-3.268,0.824-5.191l0.577-2.225
		c0.384-1.538,0.576-2.5,0.576-2.885c0-0.438-0.138-0.769-0.412-0.988c-0.988-0.714-1.594-1.071-1.812-1.071
		c-0.494,0-0.824,0.441-0.988,1.318c-0.111,0.659-0.303,0.988-0.577,0.988l-1.153-0.988c-1.265-1.099-2.39-1.649-3.379-1.649
		c-0.879,0-1.594,0.247-2.143,0.742c-2.362,2.143-4.176,5.082-5.439,8.816c-0.988,2.857-1.483,5.659-1.483,8.405
		c0,3.846,1.236,5.769,3.708,5.769c2.197,0,4.972-2.5,8.323-7.499c0.934,1.759,1.675,3.021,2.225,3.79
		c1.153,1.595,2.308,2.39,3.461,2.39c0.438,0,0.851-0.082,1.236-0.247c0.878-0.329,2.004-1.277,3.378-2.843
		c0.176-0.201,0.319-0.37,0.478-0.554c-0.132,1.403-0.265,2.823-0.396,4.221c-0.44,4.889-0.659,9.009-0.659,12.36v0.577
		c0,3.734,0.33,6.619,0.989,8.652c0.823,2.472,1.866,3.708,3.131,3.708c0.494,0,1.318-0.358,2.473-1.071
		c0.603-0.385,1.248-1.059,1.935-2.02c0.687-0.961,1.36-2.156,2.02-3.584c0.659-1.43,1.071-3.021,1.235-4.779
		c0.165-1.759,0.248-3.379,0.248-4.861c0-2.254-0.221-4.176-0.659-5.769c-0.165-1.318-1.1-4.751-2.802-10.301
		c-0.936-3.021-1.677-5.136-2.226-6.345c1.978,1.1,4.175,1.648,6.593,1.648c1.117,0,2.25-0.344,3.398-1.029
		c-0.224,1.98-0.35,3.921-0.35,5.809c0,3.846,0.687,6.044,2.06,6.592c0.44,0.165,1.017,0.274,1.73,0.33
		c2.088,0.109,4.807-0.989,8.158-3.296c1.153-0.77,2.308-1.84,3.461-3.214C321.818,76.13,322.45,74.812,322.286,73.877z
		 M278.777,71.322c-1.153,3.406-3.324,6.62-6.51,9.641c-0.275,0.275-0.604,0.412-0.988,0.412c-0.494,0-0.742-0.631-0.742-1.896
		c0-4.449,1.455-8.623,4.368-12.524c1.043-1.373,1.949-2.061,2.719-2.061c0.824,0,1.236,0.906,1.236,2.72
		c0,0.714-0.111,1.621-0.33,2.719C278.53,70.444,278.613,70.773,278.777,71.322z M295.505,83.188
		c1.153,4.229,1.73,7.718,1.73,10.466c0,1.922-0.303,4.174-0.906,6.757c-0.659,2.802-1.265,4.202-1.812,4.202
		c-0.495,0-0.907-1.209-1.236-3.626c-0.33-2.801-0.494-5.714-0.494-8.734c0-5.055,0.383-9.888,1.153-14.503
		C294.543,79.728,295.064,81.54,295.505,83.188z"/>
</g>
<g>
	<path fill="#00AEA4" d="M98.545,104.169h12.768v3.051h-9.34v6.685h9.34v3.051h-9.34v11.157h-3.428V104.169z"/>
	<path fill="#00AEA4" d="M124.388,104.032h2.409l10.735,24.08h-3.508l-3.191-7.096h-10.215l-2.992,7.096h-3.523L124.388,104.032z
		 M129.424,117.966l-3.863-8.672l-3.583,8.672H129.424z"/>
	<path fill="#00AEA4" d="M162.894,122.56v3.771c-2.514,1.371-5.415,2.057-8.706,2.057c-2.673,0-4.942-0.537-6.804-1.611
		c-1.862-1.074-3.336-2.554-4.421-4.438c-1.086-1.886-1.628-3.925-1.628-6.119c0-3.484,1.243-6.415,3.728-8.792
		c2.485-2.377,5.55-3.565,9.195-3.565c2.513,0,5.307,0.657,8.381,1.972v3.685c-2.8-1.6-5.536-2.399-8.21-2.399
		c-2.742,0-5.019,0.865-6.83,2.597c-1.811,1.73-2.716,3.899-2.716,6.504c0,2.628,0.891,4.788,2.673,6.479
		c1.783,1.691,4.062,2.537,6.839,2.537C157.295,125.233,160.129,124.342,162.894,122.56z"/>
	<path fill="#00AEA4" d="M168.581,104.135h20.001v3.051h-8.347v20.927h-3.444v-20.927h-8.21V104.135z"/>
	<path fill="#00AEA4" d="M226.261,128.112v-23.943h5.999c2.422,0,4.345,0.601,5.767,1.8c1.423,1.2,2.134,2.822,2.134,4.867
		c0,1.395-0.349,2.6-1.045,3.616c-0.697,1.018-1.697,1.777-3,2.28c0.766,0.503,1.515,1.188,2.245,2.057
		c0.731,0.868,1.76,2.382,3.086,4.541c0.833,1.36,1.502,2.383,2.005,3.068l1.269,1.714h-4.079l-1.045-1.577
		c-0.034-0.058-0.102-0.154-0.205-0.292l-0.667-0.943l-1.061-1.749l-1.146-1.869c-0.708-0.983-1.356-1.766-1.945-2.347
		c-0.589-0.582-1.121-1.001-1.596-1.258c-0.475-0.257-1.273-0.386-2.394-0.386h-0.893v10.421H226.261z M230.717,107.083h-1.028
		v7.559h1.303c1.736,0,2.928-0.148,3.573-0.446c0.646-0.297,1.148-0.745,1.509-1.345c0.359-0.601,0.539-1.283,0.539-2.049
		c0-0.754-0.199-1.437-0.6-2.048c-0.4-0.611-0.963-1.043-1.689-1.294S232.396,107.083,230.717,107.083z"/>
	<path fill="#00AEA4" d="M261.756,104.169h4.161l-8.844,11.277v12.666h-3.514v-12.666l-8.844-11.277h4.138l6.408,8.255
		L261.756,104.169z"/>
</g>
<circle fill="#BF4B9C" cx="206.425" cy="116.85" r="13.5"/>
<g>
	<path fill="#FFFFFF" d="M206.425,130.6c-0.34,0-0.678-0.012-1.013-0.037l0.037-0.498c0.656,0.047,1.325,0.047,1.98-0.002
		l0.037,0.498C207.122,130.587,206.774,130.6,206.425,130.6z M203.381,130.262c-0.67-0.151-1.331-0.354-1.967-0.604l0.184-0.465
		c0.611,0.239,1.248,0.435,1.893,0.58L203.381,130.262z M209.497,130.256l-0.111-0.488c0.64-0.146,1.276-0.343,1.891-0.584
		l0.184,0.465C210.822,129.899,210.161,130.104,209.497,130.256z M199.564,128.768c-0.593-0.342-1.164-0.731-1.699-1.157
		l0.312-0.391c0.515,0.41,1.066,0.785,1.637,1.114L199.564,128.768z M213.308,128.756l-0.25-0.434
		c0.566-0.327,1.116-0.703,1.633-1.116l0.312,0.391C214.466,128.025,213.896,128.415,213.308,128.756z M196.359,126.216
		c-0.467-0.501-0.898-1.04-1.284-1.603l0.412-0.283c0.372,0.543,0.788,1.062,1.237,1.546L196.359,126.216z M216.507,126.199
		l-0.367-0.34c0.448-0.482,0.864-1.004,1.236-1.548l0.412,0.281C217.402,125.158,216.972,125.698,216.507,126.199z M194.044,122.839
		c-0.298-0.613-0.552-1.256-0.755-1.911l0.477-0.148c0.196,0.632,0.441,1.251,0.728,1.841L194.044,122.839z M218.817,122.814
		l-0.451-0.217c0.287-0.593,0.53-1.214,0.724-1.844l0.479,0.146C219.367,121.555,219.114,122.199,218.817,122.814z M192.831,118.925
		c-0.103-0.672-0.154-1.36-0.155-2.048h0.5c0.001,0.662,0.051,1.326,0.149,1.974L192.831,118.925z M220.023,118.897l-0.494-0.074
		c0.097-0.648,0.145-1.312,0.145-1.974l0.5-0.055v0.055C220.175,117.535,220.124,118.225,220.023,118.897z M193.316,114.902
		l-0.494-0.072c0.101-0.682,0.253-1.355,0.451-2.004l0.479,0.146C193.56,113.597,193.414,114.246,193.316,114.902z M219.52,114.822
		c-0.099-0.648-0.249-1.297-0.445-1.929l0.477-0.148c0.205,0.655,0.36,1.329,0.463,2.001L219.52,114.822z M194.472,111.127
		l-0.451-0.217c0.294-0.612,0.639-1.212,1.024-1.781l0.414,0.281C195.087,109.958,194.755,110.536,194.472,111.127z
		 M218.344,111.055c-0.289-0.593-0.624-1.167-0.997-1.709l0.412-0.283c0.387,0.562,0.734,1.158,1.034,1.773L218.344,111.055z
		 M196.69,107.86l-0.367-0.34c0.462-0.501,0.968-0.972,1.502-1.401l0.312,0.391C197.623,106.923,197.136,107.377,196.69,107.86z
		 M216.107,107.806c-0.448-0.479-0.939-0.932-1.456-1.344l0.311-0.391c0.537,0.427,1.046,0.896,1.511,1.393L216.107,107.806z
		 M199.769,105.39l-0.252-0.432c0.591-0.345,1.213-0.646,1.848-0.897l0.184,0.465C200.936,104.768,200.338,105.058,199.769,105.39z
		 M213.013,105.351c-0.572-0.329-1.174-0.617-1.786-0.854l0.182-0.467c0.636,0.247,1.26,0.546,1.855,0.888L213.013,105.351z
		 M203.437,103.938l-0.113-0.486c0.662-0.153,1.346-0.258,2.03-0.311l0.039,0.498C204.733,103.69,204.075,103.791,203.437,103.938z
		 M209.332,103.92c-0.642-0.145-1.3-0.24-1.958-0.287l0.035-0.498c0.683,0.048,1.366,0.148,2.032,0.297L209.332,103.92z"/>
</g>
<g>
	<circle fill="#FFFFFF" cx="204.506" cy="118.892" r="1.281"/>
	<circle fill="#FFFFFF" cx="208.342" cy="118.808" r="1.281"/>
	<circle fill="#FFFFFF" cx="204.506" cy="114.892" r="1.281"/>
	<circle fill="#FFFFFF" cx="208.342" cy="114.808" r="1.281"/>
</g>
</svg>
